<svg xmlns="http://www.w3.org/2000/svg" fill="none" viewBox="0 0 80 80">
  <path fill="currentColor" fill-rule="evenodd"
    d="M0 25C0 11.193 11.193 0 25 0h30c13.807 0 25 11.193 25 25v30c0 13.807-11.193 25-25 25H25C11.193 80 0 68.807 0 55V25Zm41.73 5.018c-3.583 1.49-10.743 4.575-21.48 9.253-1.744.693-2.657 1.371-2.74 2.035-.14 1.12 1.263 1.562 3.174 2.163.26.082.53.166.806.256 1.88.612 4.41 1.327 5.725 1.355 1.193.026 2.525-.466 3.995-1.475 10.032-6.772 15.21-10.195 15.536-10.27.23-.051.547-.117.762.075.216.191.195.554.172.651-.14.593-5.65 5.715-8.5 8.366-.89.827-1.52 1.413-1.65 1.547-.288.3-.582.584-.865.856-1.747 1.684-3.057 2.948.073 5.01a291.45 291.45 0 0 1 3.908 2.628c1.311.893 2.62 1.784 4.311 2.893.431.283.843.577 1.244.863 1.526 1.087 2.897 2.065 4.591 1.909.984-.09 2.001-1.016 2.517-3.776 1.22-6.523 3.619-20.657 4.173-26.48a6.492 6.492 0 0 0-.061-1.45c-.05-.287-.152-.696-.525-.998-.44-.358-1.122-.434-1.427-.429-1.385.025-3.51.764-13.74 5.018Z"
    clip-rule="evenodd" />
</svg>